<svg id="Слой_1" data-name="Слой 1" xmlns="http://www.w3.org/2000/svg" viewBox="0 0 18 18">
  <defs>
    <style>
      .cls-1 {
        fill: #e30613;
      }

      .cls-2 {
        fill: #1d1d1b;
      }

      .cls-3 {
        fill: #878787;
      }

      .cls-4 {
        fill: #3c3c3b;
      }

      .cls-5 {
        fill: #f6f6f6;
      }
    </style>
  </defs>
  <g>
    <rect class="cls-1" x="7.41" width="1.06" height="0.95"/>
    <rect class="cls-1" x="3.18" width="1.06" height="0.95"/>
    <rect class="cls-1" x="2.12" width="1.06" height="0.95"/>
    <rect class="cls-1" x="3.18" y="0.95" width="1.06" height="0.94"/>
    <rect class="cls-1" x="6.35" y="3.79" width="1.06" height="0.95"/>
    <rect class="cls-1" x="7.41" y="5.68" width="1.06" height="0.95"/>
    <rect class="cls-1" x="7.41" y="4.74" width="1.06" height="0.94"/>
    <rect class="cls-1" x="9.53" y="4.74" width="1.06" height="0.94"/>
    <rect class="cls-1" x="9.53" y="3.79" width="1.06" height="0.95"/>
    <rect class="cls-1" x="9.53" y="2.84" width="1.06" height="0.95"/>
    <rect class="cls-1" x="8.47" y="2.84" width="1.06" height="0.95"/>
    <rect class="cls-1" x="9.53" y="1.89" width="1.06" height="0.95"/>
    <rect class="cls-1" x="8.47" y="1.89" width="1.06" height="0.95"/>
    <rect class="cls-1" x="9.53" y="0.95" width="1.06" height="0.94"/>
    <rect class="cls-1" x="7.41" y="3.79" width="1.06" height="0.95"/>
    <rect class="cls-1" x="8.47" y="6.63" width="1.06" height="0.95"/>
    <rect class="cls-1" x="8.47" y="3.79" width="1.06" height="0.95"/>
    <rect class="cls-1" x="8.47" y="4.74" width="1.06" height="0.94"/>
    <rect class="cls-1" x="10.59" y="2.84" width="1.06" height="0.95"/>
    <rect class="cls-1" x="6.35" y="1.89" width="1.06" height="0.95"/>
    <rect class="cls-1" x="7.41" y="1.89" width="1.06" height="0.95"/>
    <rect class="cls-1" x="4.24" y="1.89" width="1.05" height="0.95"/>
    <rect class="cls-1" x="4.24" y="2.84" width="1.05" height="0.95"/>
    <rect class="cls-1" x="5.29" y="4.74" width="1.06" height="0.94"/>
    <rect class="cls-1" x="5.29" y="3.79" width="1.06" height="0.95"/>
    <rect class="cls-1" x="6.35" y="6.63" width="1.06" height="0.95"/>
    <rect class="cls-1" x="7.41" y="7.58" width="1.06" height="0.95"/>
    <rect class="cls-1" x="8.47" y="8.53" width="1.06" height="0.94"/>
    <rect class="cls-2" x="16.94" y="15.16" width="1.06" height="0.95"/>
    <rect class="cls-2" x="16.94" y="14.21" width="1.06" height="0.95"/>
    <rect class="cls-2" x="16.94" y="13.26" width="1.06" height="0.95"/>
    <rect class="cls-2" x="16.94" y="12.32" width="1.06" height="0.94"/>
    <rect class="cls-2" x="16.94" y="11.37" width="1.06" height="0.95"/>
    <rect class="cls-2" x="16.94" y="10.42" width="1.06" height="0.95"/>
    <rect class="cls-2" x="15.88" y="16.11" width="1.06" height="0.94"/>
    <rect class="cls-3" x="15.88" y="15.16" width="1.06" height="0.95"/>
    <rect class="cls-3" x="15.88" y="14.21" width="1.06" height="0.95"/>
    <rect class="cls-3" x="15.88" y="13.26" width="1.06" height="0.95"/>
    <rect class="cls-3" x="15.88" y="12.32" width="1.06" height="0.94"/>
    <rect class="cls-3" x="15.88" y="11.37" width="1.06" height="0.95"/>
    <rect class="cls-3" x="15.88" y="10.42" width="1.06" height="0.95"/>
    <rect class="cls-2" x="15.88" y="9.47" width="1.06" height="0.95"/>
    <rect class="cls-2" x="14.82" y="17.05" width="1.06" height="0.95"/>
    <rect class="cls-3" x="14.82" y="16.11" width="1.06" height="0.94"/>
    <rect class="cls-3" x="14.82" y="15.16" width="1.06" height="0.95"/>
    <rect class="cls-3" x="14.82" y="14.21" width="1.06" height="0.95"/>
    <rect class="cls-3" x="14.82" y="13.26" width="1.06" height="0.95"/>
    <rect class="cls-3" x="14.82" y="12.32" width="1.06" height="0.94"/>
    <rect class="cls-3" x="14.82" y="11.37" width="1.06" height="0.95"/>
    <rect class="cls-3" x="14.82" y="10.42" width="1.06" height="0.95"/>
    <rect class="cls-3" x="14.82" y="9.47" width="1.06" height="0.95"/>
    <rect class="cls-2" x="14.82" y="8.53" width="1.06" height="0.94"/>
    <rect class="cls-2" x="13.76" y="17.05" width="1.06" height="0.95"/>
    <rect class="cls-4" x="13.76" y="16.11" width="1.06" height="0.94"/>
    <rect class="cls-4" x="13.76" y="15.16" width="1.06" height="0.95"/>
    <rect class="cls-4" x="13.76" y="14.21" width="1.06" height="0.95"/>
    <rect class="cls-4" x="13.76" y="13.26" width="1.06" height="0.95"/>
    <rect class="cls-4" x="13.76" y="12.32" width="1.06" height="0.94"/>
    <rect class="cls-4" x="13.76" y="11.37" width="1.06" height="0.95"/>
    <rect class="cls-4" x="13.76" y="10.42" width="1.06" height="0.95"/>
    <rect class="cls-4" x="13.76" y="9.47" width="1.06" height="0.95"/>
    <rect class="cls-2" x="13.76" y="8.53" width="1.06" height="0.94"/>
    <rect class="cls-2" x="12.71" y="17.05" width="1.05" height="0.95"/>
    <rect class="cls-5" x="12.71" y="16.11" width="1.05" height="0.94"/>
    <rect class="cls-4" x="12.71" y="15.16" width="1.05" height="0.95"/>
    <rect class="cls-4" x="12.71" y="14.21" width="1.05" height="0.95"/>
    <rect class="cls-4" x="12.71" y="13.26" width="1.05" height="0.95"/>
    <rect class="cls-5" x="12.71" y="12.32" width="1.05" height="0.94"/>
    <rect class="cls-5" x="12.71" y="11.37" width="1.05" height="0.95"/>
    <rect class="cls-4" x="12.71" y="10.42" width="1.05" height="0.95"/>
    <rect class="cls-4" x="12.71" y="9.47" width="1.05" height="0.95"/>
    <rect class="cls-2" x="12.71" y="8.53" width="1.05" height="0.94"/>
    <rect class="cls-2" x="11.65" y="17.05" width="1.06" height="0.95"/>
    <rect class="cls-5" x="11.65" y="16.11" width="1.06" height="0.94"/>
    <rect class="cls-5" x="11.65" y="15.16" width="1.06" height="0.95"/>
    <rect class="cls-4" x="11.65" y="14.21" width="1.06" height="0.95"/>
    <rect class="cls-5" x="11.65" y="13.26" width="1.06" height="0.95"/>
    <rect class="cls-5" x="11.65" y="12.32" width="1.06" height="0.94"/>
    <rect class="cls-5" x="11.65" y="11.37" width="1.06" height="0.95"/>
    <rect class="cls-4" x="11.65" y="10.42" width="1.06" height="0.95"/>
    <rect class="cls-4" x="11.65" y="9.47" width="1.06" height="0.95"/>
    <rect class="cls-2" x="11.65" y="8.53" width="1.06" height="0.94"/>
    <rect class="cls-2" x="10.59" y="17.05" width="1.06" height="0.95"/>
    <rect class="cls-4" x="10.59" y="16.11" width="1.06" height="0.94"/>
    <rect class="cls-4" x="10.59" y="15.16" width="1.06" height="0.95"/>
    <rect class="cls-4" x="10.59" y="14.21" width="1.06" height="0.95"/>
    <rect class="cls-4" x="10.59" y="13.26" width="1.06" height="0.95"/>
    <rect class="cls-4" x="10.59" y="12.32" width="1.06" height="0.94"/>
    <rect class="cls-4" x="10.59" y="11.37" width="1.06" height="0.95"/>
    <rect class="cls-4" x="10.59" y="10.42" width="1.06" height="0.95"/>
    <rect class="cls-4" x="10.59" y="9.47" width="1.06" height="0.95"/>
    <rect class="cls-2" x="10.59" y="8.53" width="1.06" height="0.94"/>
    <rect class="cls-2" x="9.53" y="17.05" width="1.06" height="0.95"/>
    <rect class="cls-3" x="9.53" y="16.11" width="1.06" height="0.94"/>
    <rect class="cls-3" x="9.53" y="15.16" width="1.06" height="0.95"/>
    <rect class="cls-3" x="9.53" y="14.21" width="1.06" height="0.95"/>
    <rect class="cls-3" x="9.53" y="13.26" width="1.06" height="0.95"/>
    <rect class="cls-3" x="9.53" y="12.32" width="1.06" height="0.94"/>
    <rect class="cls-3" x="9.53" y="11.37" width="1.06" height="0.95"/>
    <rect class="cls-3" x="9.53" y="10.42" width="1.06" height="0.95"/>
    <rect class="cls-3" x="9.53" y="9.47" width="1.06" height="0.95"/>
    <rect class="cls-2" x="9.53" y="8.53" width="1.06" height="0.94"/>
    <rect class="cls-2" x="8.47" y="16.11" width="1.06" height="0.94"/>
    <rect class="cls-2" x="8.47" y="15.16" width="1.06" height="0.95"/>
    <rect class="cls-2" x="8.47" y="14.21" width="1.06" height="0.95"/>
    <rect class="cls-2" x="8.47" y="13.26" width="1.06" height="0.95"/>
    <rect class="cls-2" x="8.47" y="12.32" width="1.06" height="0.94"/>
    <rect class="cls-2" x="8.47" y="11.37" width="1.06" height="0.95"/>
    <rect class="cls-2" x="8.47" y="10.42" width="1.06" height="0.95"/>
    <rect class="cls-2" x="8.47" y="9.47" width="1.06" height="0.95"/>
    <rect class="cls-2" x="7.41" y="17.05" width="1.06" height="0.95"/>
    <rect class="cls-2" x="7.41" y="16.11" width="1.06" height="0.94"/>
    <rect class="cls-3" x="7.41" y="15.16" width="1.06" height="0.95"/>
    <rect class="cls-3" x="7.41" y="14.21" width="1.06" height="0.95"/>
    <rect class="cls-2" x="7.41" y="13.26" width="1.06" height="0.95"/>
    <rect class="cls-2" x="7.41" y="12.32" width="1.06" height="0.94"/>
    <rect class="cls-3" x="7.41" y="11.37" width="1.06" height="0.95"/>
    <rect class="cls-3" x="7.41" y="10.42" width="1.06" height="0.95"/>
    <rect class="cls-2" x="7.41" y="9.47" width="1.06" height="0.95"/>
    <rect class="cls-3" x="6.35" y="17.05" width="1.06" height="0.95"/>
    <rect class="cls-2" x="6.35" y="16.11" width="1.06" height="0.94"/>
    <rect class="cls-3" x="6.35" y="15.16" width="1.06" height="0.95"/>
    <rect class="cls-2" x="6.35" y="14.21" width="1.06" height="0.95"/>
    <rect class="cls-4" x="6.35" y="13.26" width="1.06" height="0.95"/>
    <rect class="cls-4" x="6.35" y="12.32" width="1.06" height="0.94"/>
    <rect class="cls-3" x="6.35" y="11.37" width="1.06" height="0.95"/>
    <rect class="cls-2" x="6.35" y="10.42" width="1.06" height="0.95"/>
    <rect class="cls-2" x="6.35" y="9.47" width="1.06" height="0.95"/>
    <rect class="cls-3" x="5.29" y="17.05" width="1.06" height="0.95"/>
    <rect class="cls-2" x="5.29" y="16.11" width="1.06" height="0.94"/>
    <rect class="cls-3" x="5.29" y="15.16" width="1.06" height="0.95"/>
    <rect class="cls-3" x="5.29" y="14.21" width="1.06" height="0.95"/>
    <rect class="cls-2" x="5.29" y="13.26" width="1.06" height="0.95"/>
    <rect class="cls-2" x="5.29" y="12.32" width="1.06" height="0.94"/>
    <rect class="cls-2" x="5.29" y="11.37" width="1.06" height="0.95"/>
    <rect class="cls-3" x="5.29" y="10.42" width="1.06" height="0.95"/>
    <rect class="cls-2" x="5.29" y="9.47" width="1.06" height="0.95"/>
    <rect class="cls-3" x="4.24" y="17.05" width="1.05" height="0.95"/>
    <rect class="cls-2" x="4.24" y="16.11" width="1.05" height="0.94"/>
    <rect class="cls-4" x="4.24" y="15.16" width="1.05" height="0.95"/>
    <rect class="cls-3" x="4.24" y="14.21" width="1.05" height="0.95"/>
    <rect class="cls-3" x="4.24" y="13.26" width="1.05" height="0.95"/>
    <rect class="cls-3" x="4.24" y="12.32" width="1.05" height="0.94"/>
    <rect class="cls-3" x="4.24" y="11.37" width="1.05" height="0.95"/>
    <rect class="cls-3" x="4.24" y="10.42" width="1.05" height="0.95"/>
    <rect class="cls-2" x="4.24" y="9.47" width="1.05" height="0.95"/>
    <rect class="cls-2" x="3.18" y="17.05" width="1.06" height="0.95"/>
    <rect class="cls-3" x="3.18" y="16.11" width="1.06" height="0.94"/>
    <rect class="cls-3" x="3.18" y="15.16" width="1.06" height="0.95"/>
    <rect class="cls-4" x="3.18" y="14.21" width="1.06" height="0.95"/>
    <rect class="cls-4" x="3.18" y="13.26" width="1.06" height="0.95"/>
    <rect class="cls-4" x="3.18" y="12.32" width="1.06" height="0.94"/>
    <rect class="cls-4" x="3.18" y="11.37" width="1.06" height="0.95"/>
    <rect class="cls-2" x="3.18" y="10.42" width="1.06" height="0.95"/>
    <rect class="cls-2" x="2.12" y="17.05" width="1.06" height="0.95"/>
    <rect class="cls-3" x="2.12" y="16.11" width="1.06" height="0.94"/>
    <rect class="cls-3" x="2.12" y="15.16" width="1.06" height="0.95"/>
    <rect class="cls-3" x="2.12" y="14.21" width="1.06" height="0.95"/>
    <rect class="cls-3" x="2.12" y="13.26" width="1.06" height="0.95"/>
    <rect class="cls-3" x="2.12" y="12.32" width="1.06" height="0.94"/>
    <rect class="cls-2" x="2.12" y="11.37" width="1.06" height="0.95"/>
    <rect class="cls-2" x="1.06" y="17.05" width="1.06" height="0.95"/>
    <rect class="cls-3" x="1.06" y="16.11" width="1.06" height="0.94"/>
    <rect class="cls-3" x="1.06" y="15.16" width="1.06" height="0.95"/>
    <rect class="cls-2" x="1.06" y="14.21" width="1.06" height="0.95"/>
    <rect class="cls-3" x="1.06" y="13.26" width="1.06" height="0.95"/>
    <rect class="cls-3" x="1.06" y="12.32" width="1.06" height="0.94"/>
    <rect class="cls-2" x="1.06" y="11.37" width="1.06" height="0.95"/>
    <rect class="cls-2" y="17.05" width="1.06" height="0.95"/>
    <rect class="cls-2" y="16.11" width="1.06" height="0.94"/>
    <rect class="cls-2" y="15.16" width="1.06" height="0.95"/>
    <rect class="cls-2" y="13.26" width="1.06" height="0.95"/>
    <rect class="cls-2" y="12.32" width="1.06" height="0.94"/>
    <rect class="cls-2" y="11.37" width="1.06" height="0.95"/>
  </g>
</svg>
