<svg id="Слой_1" data-name="Слой 1" xmlns="http://www.w3.org/2000/svg" viewBox="0 0 18 18">
  <defs>
    <style>
      .cls-1 {
        fill: #e30613;
      }

      .cls-2 {
        fill: #312783;
      }

      .cls-3 {
        fill: #1d1d1b;
      }

      .cls-4 {
        fill: #fff;
      }
    </style>
  </defs>
  <g>
    <rect class="cls-1" x="6.35" y="2.84" width="1.06" height="0.95"/>
    <rect class="cls-1" x="6.35" y="3.79" width="1.06" height="0.95"/>
    <rect class="cls-2" x="6.35" y="4.74" width="1.06" height="0.94"/>
    <rect class="cls-3" x="7.41" y="4.74" width="1.06" height="0.94"/>
    <rect class="cls-3" x="7.41" y="3.79" width="1.06" height="0.95"/>
    <rect class="cls-3" x="7.41" y="2.84" width="1.06" height="0.95"/>
    <rect class="cls-3" x="6.35" y="1.89" width="1.06" height="0.95"/>
    <rect class="cls-3" x="5.29" y="2.84" width="1.06" height="0.95"/>
    <rect class="cls-3" x="5.29" y="3.79" width="1.06" height="0.95"/>
    <rect class="cls-3" x="5.29" y="4.74" width="1.06" height="0.94"/>
    <rect class="cls-3" x="16.94" y="11.37" width="1.06" height="0.95"/>
    <rect class="cls-3" x="16.94" y="10.42" width="1.06" height="0.95"/>
    <rect class="cls-3" x="16.94" y="9.47" width="1.06" height="0.95"/>
    <rect class="cls-3" x="16.94" y="8.53" width="1.06" height="0.94"/>
    <rect class="cls-3" x="16.94" y="7.58" width="1.06" height="0.95"/>
    <rect class="cls-3" x="16.94" y="6.63" width="1.06" height="0.95"/>
    <rect class="cls-3" x="15.88" y="12.32" width="1.06" height="0.94"/>
    <rect class="cls-1" x="15.88" y="11.37" width="1.06" height="0.95"/>
    <rect class="cls-1" x="15.88" y="10.42" width="1.06" height="0.95"/>
    <rect class="cls-1" x="15.88" y="9.47" width="1.06" height="0.95"/>
    <rect class="cls-1" x="15.88" y="8.53" width="1.06" height="0.94"/>
    <rect class="cls-1" x="15.88" y="7.58" width="1.06" height="0.95"/>
    <rect class="cls-1" x="15.88" y="6.63" width="1.06" height="0.95"/>
    <rect class="cls-3" x="15.88" y="5.68" width="1.06" height="0.95"/>
    <rect class="cls-3" x="14.82" y="13.26" width="1.06" height="0.95"/>
    <rect class="cls-1" x="14.82" y="12.32" width="1.06" height="0.94"/>
    <rect class="cls-3" x="14.82" y="11.37" width="1.06" height="0.95"/>
    <rect class="cls-1" x="14.82" y="10.42" width="1.06" height="0.95"/>
    <rect class="cls-1" x="14.82" y="9.47" width="1.06" height="0.95"/>
    <rect class="cls-1" x="14.82" y="8.53" width="1.06" height="0.94"/>
    <rect class="cls-1" x="14.82" y="7.58" width="1.06" height="0.95"/>
    <rect class="cls-1" x="14.82" y="6.63" width="1.06" height="0.95"/>
    <rect class="cls-1" x="14.82" y="5.68" width="1.06" height="0.95"/>
    <rect class="cls-3" x="14.82" y="4.74" width="1.06" height="0.94"/>
    <rect class="cls-3" x="13.76" y="13.26" width="1.06" height="0.95"/>
    <rect class="cls-3" x="13.76" y="12.32" width="1.06" height="0.94"/>
    <rect class="cls-4" x="13.76" y="11.37" width="1.06" height="0.95"/>
    <rect class="cls-3" x="13.76" y="10.42" width="1.06" height="0.95"/>
    <rect class="cls-3" x="13.76" y="9.47" width="1.06" height="0.95"/>
    <rect class="cls-1" x="13.76" y="8.53" width="1.06" height="0.94"/>
    <rect class="cls-1" x="13.76" y="7.58" width="1.06" height="0.95"/>
    <rect class="cls-1" x="13.76" y="6.63" width="1.06" height="0.95"/>
    <rect class="cls-3" x="13.76" y="5.68" width="1.06" height="0.95"/>
    <rect class="cls-3" x="13.76" y="4.74" width="1.06" height="0.94"/>
    <rect class="cls-3" x="12.71" y="13.26" width="1.05" height="0.95"/>
    <rect class="cls-3" x="12.71" y="12.32" width="1.05" height="0.94"/>
    <rect class="cls-4" x="12.71" y="11.37" width="1.05" height="0.95"/>
    <rect class="cls-4" x="12.71" y="10.42" width="1.05" height="0.95"/>
    <rect class="cls-4" x="12.71" y="9.47" width="1.05" height="0.95"/>
    <rect class="cls-3" x="12.71" y="8.53" width="1.05" height="0.94"/>
    <rect class="cls-1" x="12.71" y="7.58" width="1.05" height="0.95"/>
    <rect class="cls-3" x="12.71" y="6.63" width="1.05" height="0.95"/>
    <rect class="cls-4" x="12.71" y="5.68" width="1.05" height="0.95"/>
    <rect class="cls-3" x="12.71" y="4.74" width="1.05" height="0.94"/>
    <rect class="cls-3" x="11.65" y="13.26" width="1.06" height="0.95"/>
    <rect class="cls-3" x="11.65" y="12.32" width="1.06" height="0.94"/>
    <rect class="cls-4" x="11.65" y="11.37" width="1.06" height="0.95"/>
    <rect class="cls-4" x="11.65" y="10.42" width="1.06" height="0.95"/>
    <rect class="cls-4" x="11.65" y="9.47" width="1.06" height="0.95"/>
    <rect class="cls-3" x="11.65" y="8.53" width="1.06" height="0.94"/>
    <rect class="cls-1" x="11.65" y="7.58" width="1.06" height="0.95"/>
    <rect class="cls-3" x="11.65" y="6.63" width="1.06" height="0.95"/>
    <rect class="cls-4" x="11.65" y="5.68" width="1.06" height="0.95"/>
    <rect class="cls-3" x="11.65" y="4.74" width="1.06" height="0.94"/>
    <rect class="cls-3" x="10.59" y="13.26" width="1.06" height="0.95"/>
    <rect class="cls-1" x="10.59" y="12.32" width="1.06" height="0.94"/>
    <rect class="cls-3" x="10.59" y="11.37" width="1.06" height="0.95"/>
    <rect class="cls-3" x="10.59" y="10.42" width="1.06" height="0.95"/>
    <rect class="cls-3" x="10.59" y="9.47" width="1.06" height="0.95"/>
    <rect class="cls-1" x="10.59" y="8.53" width="1.06" height="0.94"/>
    <rect class="cls-1" x="10.59" y="7.58" width="1.06" height="0.95"/>
    <rect class="cls-1" x="10.59" y="6.63" width="1.06" height="0.95"/>
    <rect class="cls-3" x="10.59" y="5.68" width="1.06" height="0.95"/>
    <rect class="cls-3" x="10.59" y="4.74" width="1.06" height="0.94"/>
    <rect class="cls-3" x="9.53" y="13.26" width="1.06" height="0.95"/>
    <rect class="cls-1" x="9.53" y="12.32" width="1.06" height="0.94"/>
    <rect class="cls-1" x="9.53" y="11.37" width="1.06" height="0.95"/>
    <rect class="cls-1" x="9.53" y="10.42" width="1.06" height="0.95"/>
    <rect class="cls-1" x="9.53" y="9.47" width="1.06" height="0.95"/>
    <rect class="cls-1" x="9.53" y="8.53" width="1.06" height="0.94"/>
    <rect class="cls-1" x="9.53" y="7.58" width="1.06" height="0.95"/>
    <rect class="cls-1" x="9.53" y="6.63" width="1.06" height="0.95"/>
    <rect class="cls-1" x="9.53" y="5.68" width="1.06" height="0.95"/>
    <rect class="cls-3" x="9.53" y="4.74" width="1.06" height="0.94"/>
    <rect class="cls-3" x="8.47" y="12.32" width="1.06" height="0.94"/>
    <rect class="cls-3" x="8.47" y="11.37" width="1.06" height="0.95"/>
    <rect class="cls-3" x="8.47" y="10.42" width="1.06" height="0.95"/>
    <rect class="cls-3" x="8.47" y="9.47" width="1.06" height="0.95"/>
    <rect class="cls-3" x="8.47" y="8.53" width="1.06" height="0.94"/>
    <rect class="cls-3" x="8.47" y="7.58" width="1.06" height="0.95"/>
    <rect class="cls-3" x="8.47" y="6.63" width="1.06" height="0.95"/>
    <rect class="cls-3" x="8.47" y="5.68" width="1.06" height="0.95"/>
    <rect class="cls-3" x="7.41" y="15.16" width="1.06" height="0.95"/>
    <rect class="cls-3" x="7.41" y="14.21" width="1.06" height="0.95"/>
    <rect class="cls-3" x="7.41" y="13.26" width="1.06" height="0.95"/>
    <rect class="cls-3" x="7.41" y="12.32" width="1.06" height="0.94"/>
    <rect class="cls-1" x="7.41" y="11.37" width="1.06" height="0.95"/>
    <rect class="cls-1" x="7.41" y="10.42" width="1.06" height="0.95"/>
    <rect class="cls-1" x="7.41" y="9.47" width="1.06" height="0.95"/>
    <rect class="cls-1" x="7.41" y="8.53" width="1.06" height="0.94"/>
    <rect class="cls-1" x="7.41" y="7.58" width="1.06" height="0.95"/>
    <rect class="cls-1" x="7.41" y="6.63" width="1.06" height="0.95"/>
    <rect class="cls-3" x="7.41" y="5.68" width="1.06" height="0.95"/>
    <rect class="cls-3" x="6.35" y="16.11" width="1.06" height="0.94"/>
    <rect class="cls-1" x="6.35" y="15.16" width="1.06" height="0.95"/>
    <rect class="cls-1" x="6.35" y="14.21" width="1.06" height="0.95"/>
    <rect class="cls-2" x="6.35" y="13.26" width="1.06" height="0.95"/>
    <rect class="cls-2" x="6.35" y="12.32" width="1.06" height="0.94"/>
    <rect class="cls-1" x="6.35" y="11.37" width="1.06" height="0.95"/>
    <rect class="cls-1" x="6.35" y="10.42" width="1.06" height="0.95"/>
    <rect class="cls-1" x="6.35" y="9.47" width="1.06" height="0.95"/>
    <rect class="cls-3" x="6.35" y="8.53" width="1.06" height="0.94"/>
    <rect class="cls-1" x="6.35" y="7.58" width="1.06" height="0.95"/>
    <rect class="cls-1" x="6.35" y="6.63" width="1.06" height="0.95"/>
    <rect class="cls-2" x="6.35" y="5.68" width="1.06" height="0.95"/>
    <rect class="cls-3" x="5.29" y="15.16" width="1.06" height="0.95"/>
    <rect class="cls-3" x="5.29" y="14.21" width="1.06" height="0.95"/>
    <rect class="cls-3" x="5.29" y="13.26" width="1.06" height="0.95"/>
    <rect class="cls-3" x="5.29" y="12.32" width="1.06" height="0.94"/>
    <rect class="cls-2" x="5.29" y="11.37" width="1.06" height="0.95"/>
    <rect class="cls-1" x="5.29" y="10.42" width="1.06" height="0.95"/>
    <rect class="cls-1" x="5.29" y="9.47" width="1.06" height="0.95"/>
    <rect class="cls-3" x="5.29" y="8.53" width="1.06" height="0.94"/>
    <rect class="cls-1" x="5.29" y="7.58" width="1.06" height="0.95"/>
    <rect class="cls-2" x="5.29" y="6.63" width="1.06" height="0.95"/>
    <rect class="cls-3" x="5.29" y="5.68" width="1.06" height="0.95"/>
    <rect class="cls-3" x="4.24" y="12.32" width="1.05" height="0.94"/>
    <rect class="cls-1" x="4.24" y="11.37" width="1.05" height="0.95"/>
    <rect class="cls-1" x="4.24" y="10.42" width="1.05" height="0.95"/>
    <rect class="cls-1" x="4.24" y="9.47" width="1.05" height="0.95"/>
    <rect class="cls-1" x="4.24" y="8.53" width="1.05" height="0.94"/>
    <rect class="cls-1" x="4.24" y="7.58" width="1.05" height="0.95"/>
    <rect class="cls-1" x="4.24" y="6.63" width="1.05" height="0.95"/>
    <rect class="cls-3" x="4.24" y="5.68" width="1.05" height="0.95"/>
    <rect class="cls-3" x="3.18" y="12.32" width="1.06" height="0.94"/>
    <rect class="cls-2" x="3.18" y="11.37" width="1.06" height="0.95"/>
    <rect class="cls-2" x="3.18" y="10.42" width="1.06" height="0.95"/>
    <rect class="cls-2" x="3.18" y="9.47" width="1.06" height="0.95"/>
    <rect class="cls-2" x="3.18" y="8.53" width="1.06" height="0.94"/>
    <rect class="cls-2" x="3.18" y="7.58" width="1.06" height="0.95"/>
    <rect class="cls-2" x="3.18" y="6.63" width="1.06" height="0.95"/>
    <rect class="cls-3" x="3.18" y="5.68" width="1.06" height="0.95"/>
    <rect class="cls-3" x="2.12" y="12.32" width="1.06" height="0.94"/>
    <rect class="cls-2" x="2.12" y="11.37" width="1.06" height="0.95"/>
    <rect class="cls-2" x="2.12" y="10.42" width="1.06" height="0.95"/>
    <rect class="cls-2" x="2.12" y="9.47" width="1.06" height="0.95"/>
    <rect class="cls-3" x="2.12" y="8.53" width="1.06" height="0.94"/>
    <rect class="cls-2" x="2.12" y="7.58" width="1.06" height="0.95"/>
    <rect class="cls-2" x="2.12" y="6.63" width="1.06" height="0.95"/>
    <rect class="cls-3" x="2.12" y="5.68" width="1.06" height="0.95"/>
    <rect class="cls-3" x="1.06" y="12.32" width="1.06" height="0.94"/>
    <rect class="cls-1" x="1.06" y="11.37" width="1.06" height="0.95"/>
    <rect class="cls-1" x="1.06" y="10.42" width="1.06" height="0.95"/>
    <rect class="cls-3" x="1.06" y="9.47" width="1.06" height="0.95"/>
    <rect class="cls-3" x="1.06" y="8.53" width="1.06" height="0.94"/>
    <rect class="cls-1" x="1.06" y="7.58" width="1.06" height="0.95"/>
    <rect class="cls-1" x="1.06" y="6.63" width="1.06" height="0.95"/>
    <rect class="cls-3" x="1.06" y="5.68" width="1.06" height="0.95"/>
    <rect class="cls-3" y="12.32" width="1.06" height="0.94"/>
    <rect class="cls-3" y="11.37" width="1.06" height="0.95"/>
    <rect class="cls-3" y="10.42" width="1.06" height="0.95"/>
    <rect class="cls-3" y="8.53" width="1.06" height="0.94"/>
    <rect class="cls-3" y="7.58" width="1.06" height="0.95"/>
    <rect class="cls-3" y="6.63" width="1.06" height="0.95"/>
    <rect class="cls-3" y="5.68" width="1.06" height="0.95"/>
  </g>
</svg>
