<svg id="Слой_1" data-name="Слой 1" xmlns="http://www.w3.org/2000/svg" viewBox="0 0 8 8">
  <defs>
    <style>
      .cls-1 {
        fill: #fff;
      }
    </style>
  </defs>
  <g>
    <rect class="cls-1" x="4.71" y="5.05" width="0.47" height="0.42"/>
    <rect class="cls-1" x="4.71" y="2.53" width="0.47" height="0.42"/>
    <rect class="cls-1" x="4.71" y="5.89" width="0.47" height="0.43"/>
    <rect class="cls-1" x="4.24" y="5.47" width="0.47" height="0.42"/>
    <rect class="cls-1" x="3.76" y="5.05" width="0.48" height="0.42"/>
    <rect class="cls-1" x="4.71" y="1.68" width="0.47" height="0.43"/>
    <rect class="cls-1" x="4.24" y="2.11" width="0.47" height="0.42"/>
    <rect class="cls-1" x="3.76" y="2.53" width="0.48" height="0.42"/>
    <rect class="cls-1" x="4.71" y="4.21" width="0.47" height="0.42"/>
    <rect class="cls-1" x="4.71" y="3.37" width="0.47" height="0.42"/>
    <rect class="cls-1" x="4.24" y="3.79" width="0.47" height="0.42"/>
    <rect class="cls-1" x="3.76" y="4.63" width="0.48" height="0.42"/>
    <rect class="cls-1" x="3.76" y="3.79" width="0.48" height="0.42"/>
    <rect class="cls-1" x="3.76" y="2.95" width="0.48" height="0.42"/>
    <rect class="cls-1" x="3.29" y="4.21" width="0.47" height="0.42"/>
    <rect class="cls-1" x="3.29" y="3.79" width="0.47" height="0.42"/>
    <rect class="cls-1" x="3.29" y="3.37" width="0.47" height="0.42"/>
  </g>
</svg>
